<?xml version="1.0" encoding="utf-8"?>
<!-- Generator: Adobe Illustrator 18.0.0, SVG Export Plug-In . SVG Version: 6.00 Build 0)  -->
<!DOCTYPE svg PUBLIC "-//W3C//DTD SVG 1.1//EN" "http://www.w3.org/Graphics/SVG/1.1/DTD/svg11.dtd">
<svg version="1.1" id="Camada_1" xmlns="http://www.w3.org/2000/svg" xmlns:xlink="http://www.w3.org/1999/xlink" x="0px" y="0px"
	 viewBox="0 0 100 100" enable-background="new 0 0 100 100" xml:space="preserve">
<path fill="#FFFFFF" d="M71.7,68.8c-6.6,0-12.7-2.2-17.1-6.2c-4.7-4.3-7.4-10.4-7.4-17.2c0-4.5,1-9,2.9-13l0,0l4.1-8.5L45.9,6.8
	c-2.2-4.4-8.5-4.4-10.7,0l-22,45c-2.5,5.4-3.8,11.3-3.8,17.3c0,18.4,13.9,29.4,31.2,29.4c17.2,0,31.1-11,31.1-29.4
	C71.8,69,71.7,68.9,71.7,68.8L71.7,68.8z M27.5,53.5c-0.1,0.1-7,9.5-5.5,22.1c0.2,1.3-0.7,2.4-2,2.5c-0.1,0-0.2,0-0.3,0
	c-1.1,0-2.1-0.8-2.3-2c-1.8-14.5,6-25,6.4-25.4c0.8-1,2.2-1.2,3.2-0.4C28,51.1,28.2,52.5,27.5,53.5L27.5,53.5z M89.2,34.4L75.2,5.6
	c-1.4-2.8-5.4-2.8-6.8,0L56.8,29.2l-2.6,5.3c-0.3,0.7-0.6,1.4-0.9,2.1c-0.2,0.6-0.4,1.2-0.6,1.9c-0.6,2.3-1,4.7-1,7
	c0,0.4,0,0.7,0,1.1c0,0.1,0,0.2,0,0.3c0,0.3,0,0.5,0.1,0.8c0,0.1,0,0.3,0,0.4c0,0.2,0,0.4,0.1,0.6c0,0.1,0,0.3,0.1,0.4
	c0,0.2,0.1,0.4,0.1,0.6c0,0.2,0.1,0.3,0.1,0.5c0,0.2,0.1,0.3,0.1,0.5c0,0.2,0.1,0.3,0.1,0.5c0,0.2,0.1,0.3,0.1,0.5
	c0.1,0.2,0.1,0.3,0.2,0.5c0,0.1,0.1,0.3,0.1,0.4c0.1,0.2,0.1,0.3,0.2,0.5c0,0.1,0.1,0.3,0.2,0.4c0.1,0.2,0.2,0.3,0.2,0.5
	c0.1,0.1,0.1,0.2,0.2,0.3c0.1,0.2,0.2,0.3,0.3,0.5c0.1,0.1,0.1,0.2,0.2,0.3c0.1,0.2,0.2,0.3,0.3,0.5c0.1,0.1,0.1,0.2,0.2,0.3
	c0.1,0.2,0.2,0.3,0.4,0.5c0.1,0.1,0.1,0.2,0.2,0.2c0.1,0.2,0.3,0.3,0.4,0.5c0.1,0.1,0.1,0.1,0.2,0.2c0.1,0.2,0.3,0.3,0.4,0.5
	c0,0.1,0.1,0.1,0.1,0.2c0.2,0.2,0.3,0.3,0.5,0.5c0,0,0.1,0.1,0.1,0.1c0.2,0.2,0.3,0.3,0.5,0.5c0,0,0.1,0.1,0.1,0.1
	c0.2,0.2,0.4,0.3,0.6,0.5c0,0,0.1,0.1,0.1,0.1c0.2,0.2,0.4,0.3,0.6,0.5c0,0,0.1,0,0.1,0.1c0.2,0.2,0.4,0.3,0.7,0.5c0,0,0,0,0.1,0.1
	c0.2,0.2,0.5,0.3,0.7,0.4c0,0,0,0,0.1,0c0.2,0.1,0.5,0.3,0.8,0.4c0,0,0,0,0,0c0.3,0.1,0.5,0.3,0.8,0.4c0,0,0,0,0,0
	c0.3,0.1,0.6,0.3,0.8,0.4l0,0c2.6,1.1,5.5,1.7,8.5,1.7h0c0.1,0,0.2,0,0.3,0c11,0,19.9-7,19.9-18.8C91.7,41.7,90.8,37.9,89.2,34.4
	L89.2,34.4z M66,36c-0.1,0.1-4.3,5.8-3.3,13.5c0.2,1.3-0.7,2.4-2,2.5c-0.1,0-0.2,0-0.3,0c-1.1,0-2.1-0.8-2.3-2
	c-1.2-9.6,4-16.6,4.2-16.8c0.8-1,2.2-1.2,3.2-0.4C66.5,33.5,66.7,35,66,36L66,36z M66,36"/>
</svg>
